<?xml version="1.0" encoding="utf-8"?>
<!-- Generator: Adobe Illustrator 23.0.1, SVG Export Plug-In . SVG Version: 6.00 Build 0)  -->
<svg version="1.1" id="Layer_1" xmlns="http://www.w3.org/2000/svg" xmlns:xlink="http://www.w3.org/1999/xlink" x="0px" y="0px"
	 viewBox="0 0 100 100" style="enable-background:new 0 0 100 100;" xml:space="preserve">
<path d="M89,71.29V39c0-0.16-0.03-0.32-0.06-0.48c-0.01-0.04-0.03-0.08-0.04-0.12c-0.04-0.11-0.08-0.22-0.14-0.33
	c-0.02-0.04-0.04-0.08-0.06-0.12c-0.08-0.13-0.17-0.26-0.28-0.37c0,0,0,0,0-0.01c-0.11-0.11-0.24-0.2-0.37-0.29
	c-0.02-0.01-0.03-0.02-0.04-0.03l-40-23c-0.62-0.35-1.38-0.35-1.99,0l-40,23C5.38,37.62,5,38.28,5,39s0.38,1.38,1,1.73l11,6.32
	v19.24c0,0.72,0.39,1.39,1.02,1.74l28,15.71C46.33,83.92,46.66,84,47,84s0.67-0.08,0.98-0.26l28-15.71
	c0.63-0.35,1.02-1.02,1.02-1.74V47.06l8-4.6v28.84c-2.89,0.86-5,3.54-5,6.71v7c0,1.1,0.9,2,2,2h10c1.1,0,2-0.9,2-2v-7
	C94,74.84,91.89,72.16,89,71.29z M47,18.31L79.51,37h-25.8c-0.86-2.89-3.54-5-6.71-5c-3.86,0-7,3.14-7,7s3.14,7,7,7
	c3.16,0,5.84-2.11,6.71-5h25.8L47,59.69L11.01,39L47,18.31z M50,39c0,1.65-1.35,3-3,3s-3-1.35-3-3s1.35-3,3-3S50,37.35,50,39z
	 M73,65.12L47,79.71L21,65.12V49.36l25,14.38c0.31,0.18,0.65,0.27,1,0.27s0.69-0.09,1-0.27l25-14.38V65.12z M90,83h-6v-5
	c0-1.65,1.35-3,3-3s3,1.35,3,3V83z"/>
</svg>
