<svg id="Capa_1" enable-background="new 0 0 512 512" height="512" viewBox="0 0 512 512" width="512" xmlns="http://www.w3.org/2000/svg"><g><path d="m256 0c-57.897 0-105 47.103-105 105v151c0 57.897 47.103 105 105 105s105-47.103 105-105v-151c0-57.897-47.103-105-105-105zm75 256c0 41.355-33.645 75-75 75s-75-33.645-75-75v-151c0-41.355 33.645-75 75-75s75 33.645 75 75z"/><path d="m421 256v-15h15c8.284 0 15-6.716 15-15s-6.716-15-15-15h-30c-8.284 0-15 6.716-15 15v30c0 74.439-60.561 135-135 135s-135-60.561-135-135v-30c0-8.284-6.716-15-15-15h-30c-8.284 0-15 6.716-15 15s6.716 15 15 15h15v15c0 85.924 66.023 156.706 150 164.311v61.689h-75c-8.284 0-15 6.716-15 15s6.716 15 15 15h180c8.284 0 15-6.716 15-15s-6.716-15-15-15h-75v-61.689c83.977-7.604 150-78.386 150-164.311z"/><path d="m286 226h-60c-8.284 0-15 6.716-15 15s6.716 15 15 15h60c8.284 0 15-6.716 15-15s-6.716-15-15-15z"/><path d="m286 166h-60c-8.284 0-15 6.716-15 15s6.716 15 15 15h60c8.284 0 15-6.716 15-15s-6.716-15-15-15z"/><path d="m286 106h-60c-8.284 0-15 6.716-15 15s6.716 15 15 15h60c8.284 0 15-6.716 15-15s-6.716-15-15-15z"/></g></svg>