<?xml version="1.0" encoding="iso-8859-1"?>
<!-- Generator: Adobe Illustrator 19.0.0, SVG Export Plug-In . SVG Version: 6.00 Build 0)  -->
<svg version="1.1" id="Capa_1" xmlns="http://www.w3.org/2000/svg" xmlns:xlink="http://www.w3.org/1999/xlink" x="0px" y="0px"
	 viewBox="0 0 496.8 496.8" style="enable-background:new 0 0 496.8 496.8;" xml:space="preserve">
<g>
	<g>
		<path d="M473.822,240l21.6-36c2.4-4,0.8-8.8-2.4-11.2c-1.6-0.8-3.2-0.8-4.8-0.8h-64.8c0.8-5.6,0.8-10.4,0.8-16
			c0-97.6-78.4-176-176-176s-176,78.4-176,176c0,5.6,0,10.4,0.8,16h-64.8c-4.8,0-8,3.2-8,8c0,1.6,0,3.2,0.8,4l21.6,36l-21.6,36
			c-1.6,4-0.8,8.8,3.2,11.2c0.8,0.8,2.4,0.8,4,0.8h56v24c0,4.8,3.2,8,8,8h75.2c3.2,2.4,5.6,4,8.8,6.4l-59.2,118.4
			c-2.4,4-0.8,8.8,3.2,10.4c2.4,0.8,4.8,0.8,7.2,0l55.2-27.2l13.6,62.4c0.8,3.2,3.2,5.6,7.2,6.4h0.8c3.2,0,6.4-1.6,7.2-4.8l56.8-128
			l56.8,127.2c1.6,3.2,4,4.8,7.2,4.8h0.8c3.2,0,6.4-3.2,7.2-6.4l13.6-62.4l55.2,27.2c4,2.4,8.8,0.8,10.4-3.2c0.8-2.4,0.8-4.8,0-7.2
			l-59.2-118.4c3.2-1.6,6.4-4,8.8-6.4h75.2c4.8,0,8-3.2,8-8v-24h56c4.8,0,8-3.2,8-8c0-1.6,0-3.2-0.8-4L473.822,240z M199.422,23.2
			c16-4.8,32-7.2,48.8-7.2c88,0,160,71.2,160,159.2c0,16.8-2.4,32.8-7.2,48.8h-16.8c26.4-75.2-12.8-157.6-88-184
			s-156.8,12.8-184,87.2c-11.2,31.2-11.2,65.6,0,96.8h-16.8C69.022,140,115.422,50.4,199.422,23.2z M376.222,176
			c0,16.8-3.2,33.6-9.6,48.8h-236.8c-6.4-16-9.6-32-9.6-48.8c0-70.4,56.8-128,128-128C318.622,48,376.222,104.8,376.222,176z
			 M72.222,224c-4.8,0-8,3.2-8,8v40h-41.6l16.8-28c1.6-2.4,1.6-5.6,0-8l-16.8-28h52.8c0.8,5.6,2.4,10.4,4,16H72.222z M186.622,462.4
			l-10.4-48c-0.8-4-5.6-7.2-9.6-6.4c-0.8,0-1.6,0-1.6,0.8l-42.4,21.6l48-96c20.8,10.4,43.2,16,65.6,17.6L186.622,462.4z
			 M178.622,320h45.6v14.4C208.222,332,193.022,327.2,178.622,320z M256.222,336c-2.4,0-5.6,0-8,0c-2.4,0-5.6,0-8,0v-16h16V336z
			 M374.622,430.4l-42.4-21.6c-4-1.6-8.8,0-10.4,3.2c0,0.8-0.8,1.6-0.8,1.6l-10.4,48l-49.6-111.2c23.2-1.6,45.6-7.2,65.6-17.6
			L374.622,430.4z M272.222,334.4V320h45.6C303.422,327.2,288.222,332,272.222,334.4z M416.222,304h-336v-32h336V304z M416.222,256
			h-336v-16h336V256z M432.222,272v-40c0-4.8-3.2-8-8-8h-6.4c1.6-5.6,2.4-10.4,4-16h52.8l-16.8,28c-1.6,2.4-1.6,5.6,0,8l16.8,28
			H432.222z"/>
	</g>
</g>
<g>
	<g>
		<path d="M317.022,114.4c0-1.6-2.4-2.4-4-2.4l-38.4-4.8l-19.2-39.2c-2.4-4-7.2-5.6-11.2-3.2c-0.8,0.8-2.4,1.6-3.2,3.2l-19.2,39.2
			l-38.4,4.8c-4,0.8-7.2,4.8-7.2,8.8c0,1.6,0.8,3.2,2.4,4.8l28.8,28.8l-7.2,44c-0.8,4,2.4,8.8,6.4,9.6c2.4,0,4,0,5.6-1.6l35.2-24
			l35.2,24c4,2.4,8.8,1.6,11.2-2.4c0.8-1.6,1.6-4,1.6-5.6l-7.2-44l28.8-28.8C320.222,122.4,320.222,117.6,317.022,114.4z
			 M274.622,146.4c-1.6,1.6-2.4,4.8-2.4,7.2l4.8,29.6l-24.8-16.8c-2.4-1.6-6.4-1.6-8.8,0l-24.8,16.8l4.8-29.6
			c0.8-2.4-0.8-4.8-2.4-7.2l-20.8-20.8l26.4-3.2c2.4,0,4.8-1.6,6.4-4l14.4-28l14.4,28c0.8,2.4,3.2,4,6.4,4l26.4,3.2L274.622,146.4z"
			/>
	</g>
</g>
<g>
</g>
<g>
</g>
<g>
</g>
<g>
</g>
<g>
</g>
<g>
</g>
<g>
</g>
<g>
</g>
<g>
</g>
<g>
</g>
<g>
</g>
<g>
</g>
<g>
</g>
<g>
</g>
<g>
</g>
</svg>
